<?xml version="1.0" standalone="no"?>
<!DOCTYPE svg PUBLIC "-//W3C//DTD SVG 20010904//EN"
 "http://www.w3.org/TR/2001/REC-SVG-20010904/DTD/svg10.dtd">
<svg version="1.0" xmlns="http://www.w3.org/2000/svg"
 width="200.000000pt" height="200.000000pt" viewBox="0 0 200.000000 200.000000"
 preserveAspectRatio="xMidYMid meet">

<g transform="translate(0.000000,200.000000) scale(0.100000,-0.100000)"
fill="#000000" stroke="none">
<path d="M393 1870 c-75 -11 -136 -44 -187 -101 -72 -80 -78 -109 -84 -377 -2
-128 -1 -248 2 -267 12 -60 69 -80 111 -39 12 12 15 43 15 149 l0 133 104 4
c85 2 108 6 125 22 26 24 27 60 1 86 -17 17 -33 20 -125 20 l-105 0 0 43 c0
23 5 58 10 77 12 45 75 107 121 120 20 6 265 10 619 10 354 0 599 -4 619 -10
46 -13 109 -75 121 -120 5 -19 10 -54 10 -77 l0 -43 -578 0 c-563 0 -579 -1
-597 -20 -22 -24 -23 -67 -1 -88 15 -15 72 -17 596 -20 l580 -3 0 -477 c0
-281 -4 -491 -10 -512 -12 -45 -75 -107 -121 -120 -46 -13 -1192 -13 -1239 0
-45 12 -107 75 -120 121 -6 18 -10 86 -10 151 0 90 -3 120 -15 132 -42 42 -99
21 -111 -41 -11 -56 3 -242 22 -298 23 -66 110 -154 179 -180 46 -18 91 -19
622 -23 337 -2 601 1 642 7 162 22 260 120 282 281 6 42 9 302 7 643 -4 660 0
631 -97 728 -98 97 -65 93 -746 95 -324 1 -613 -1 -642 -6z"/>
<path d="M960 1670 c-48 -48 -10 -110 68 -110 63 0 92 21 92 65 0 44 -29 65
-92 65 -35 0 -54 -6 -68 -20z"/>
<path d="M1210 1670 c-48 -48 -10 -110 68 -110 63 0 92 21 92 65 0 44 -29 65
-92 65 -35 0 -54 -6 -68 -20z"/>
<path d="M1460 1670 c-48 -48 -10 -110 68 -110 63 0 92 21 92 65 0 44 -29 65
-92 65 -35 0 -54 -6 -68 -20z"/>
<path d="M917 1236 c-55 -21 -103 -61 -134 -114 -23 -39 -28 -58 -28 -117 0
-58 5 -81 28 -125 l29 -55 -24 -14 c-48 -31 -108 -104 -129 -160 -26 -70 -41
-206 -25 -240 7 -15 24 -28 44 -33 19 -5 174 -8 346 -6 247 2 316 6 329 17 34
28 17 213 -27 298 -18 36 -78 101 -114 123 l-24 15 28 53 c65 126 27 268 -91
338 -56 32 -150 42 -208 20z m169 -150 c30 -30 34 -40 34 -86 0 -75 -45 -120
-120 -120 -46 0 -56 4 -86 34 -30 30 -34 40 -34 86 0 46 4 56 34 86 30 30 40
34 86 34 46 0 56 -4 86 -34z m-1 -353 c63 -21 127 -85 148 -148 32 -92 50 -85
-233 -85 -283 0 -265 -7 -233 85 43 127 186 193 318 148z"/>
<path d="M149 911 c-31 -25 -34 -108 -5 -140 45 -49 106 -11 106 67 0 53 -5
64 -37 81 -29 15 -37 14 -64 -8z"/>
</g>
</svg>
