<?xml version="1.0" encoding="UTF-8"?>
<svg xmlns="http://www.w3.org/2000/svg" xmlns:xlink="http://www.w3.org/1999/xlink" width="24px" height="24px" viewBox="0 0 24 24" version="1.1">
<g id="surface1">
<path style=" stroke:none;fill-rule:nonzero;fill:rgb(0%,0%,0%);fill-opacity:1;" d="M 4.714844 1.558594 C 3.816406 1.691406 3.085938 2.089844 2.472656 2.773438 C 1.609375 3.730469 1.535156 4.078125 1.464844 7.296875 C 1.441406 8.832031 1.453125 10.273438 1.488281 10.5 C 1.632812 11.21875 2.316406 11.460938 2.820312 10.96875 C 2.964844 10.824219 3 10.453125 3 9.179688 L 3 7.585938 L 4.246094 7.535156 C 5.269531 7.511719 5.542969 7.464844 5.746094 7.273438 C 6.058594 6.984375 6.070312 6.550781 5.761719 6.238281 C 5.554688 6.035156 5.363281 6 4.261719 6 L 3 6 L 3 5.484375 C 3 5.207031 3.058594 4.789062 3.121094 4.558594 C 3.265625 4.019531 4.019531 3.277344 4.570312 3.121094 C 4.8125 3.046875 7.753906 3 12 3 C 16.246094 3 19.1875 3.046875 19.429688 3.121094 C 19.980469 3.277344 20.734375 4.019531 20.878906 4.558594 C 20.941406 4.789062 21 5.207031 21 5.484375 L 21 6 L 14.0625 6 C 7.308594 6 7.117188 6.011719 6.898438 6.238281 C 6.636719 6.527344 6.625 7.042969 6.886719 7.296875 C 7.066406 7.476562 7.753906 7.5 14.039062 7.535156 L 21 7.570312 L 21 13.296875 C 21 16.667969 20.953125 19.1875 20.878906 19.441406 C 20.734375 19.980469 19.980469 20.722656 19.429688 20.878906 C 18.875 21.035156 5.125 21.035156 4.558594 20.878906 C 4.019531 20.734375 3.277344 19.980469 3.121094 19.429688 C 3.046875 19.210938 3 18.394531 3 17.617188 C 3 16.535156 2.964844 16.175781 2.820312 16.03125 C 2.316406 15.527344 1.632812 15.78125 1.488281 16.523438 C 1.355469 17.195312 1.523438 19.429688 1.753906 20.101562 C 2.027344 20.890625 3.070312 21.949219 3.898438 22.261719 C 4.453125 22.476562 4.992188 22.488281 11.363281 22.535156 C 15.40625 22.558594 18.574219 22.523438 19.066406 22.453125 C 21.011719 22.1875 22.1875 21.011719 22.453125 19.078125 C 22.523438 18.574219 22.558594 15.457031 22.535156 11.363281 C 22.488281 3.445312 22.535156 3.792969 21.371094 2.628906 C 20.195312 1.464844 20.59375 1.511719 12.421875 1.488281 C 8.53125 1.476562 5.0625 1.5 4.714844 1.558594 Z M 4.714844 1.558594 "/>
<path style=" stroke:none;fill-rule:nonzero;fill:rgb(0%,0%,0%);fill-opacity:1;" d="M 11.519531 3.960938 C 10.945312 4.535156 11.398438 5.28125 12.335938 5.28125 C 13.09375 5.28125 13.441406 5.027344 13.441406 4.5 C 13.441406 3.972656 13.09375 3.71875 12.335938 3.71875 C 11.914062 3.71875 11.6875 3.792969 11.519531 3.960938 Z M 11.519531 3.960938 "/>
<path style=" stroke:none;fill-rule:nonzero;fill:rgb(0%,0%,0%);fill-opacity:1;" d="M 14.519531 3.960938 C 13.945312 4.535156 14.398438 5.28125 15.335938 5.28125 C 16.09375 5.28125 16.441406 5.027344 16.441406 4.5 C 16.441406 3.972656 16.09375 3.71875 15.335938 3.71875 C 14.914062 3.71875 14.6875 3.792969 14.519531 3.960938 Z M 14.519531 3.960938 "/>
<path style=" stroke:none;fill-rule:nonzero;fill:rgb(0%,0%,0%);fill-opacity:1;" d="M 17.519531 3.960938 C 16.945312 4.535156 17.398438 5.28125 18.335938 5.28125 C 19.09375 5.28125 19.441406 5.027344 19.441406 4.5 C 19.441406 3.972656 19.09375 3.71875 18.335938 3.71875 C 17.914062 3.71875 17.6875 3.792969 17.519531 3.960938 Z M 17.519531 3.960938 "/>
<path style=" stroke:none;fill-rule:nonzero;fill:rgb(0%,0%,0%);fill-opacity:1;" d="M 11.003906 9.167969 C 10.34375 9.421875 9.769531 9.898438 9.394531 10.535156 C 9.121094 11.003906 9.058594 11.230469 9.058594 11.941406 C 9.058594 12.636719 9.121094 12.910156 9.394531 13.441406 L 9.742188 14.101562 L 9.457031 14.269531 C 8.878906 14.640625 8.160156 15.515625 7.90625 16.1875 C 7.597656 17.027344 7.414062 18.660156 7.609375 19.066406 C 7.691406 19.246094 7.894531 19.402344 8.136719 19.464844 C 8.363281 19.523438 10.222656 19.558594 12.289062 19.535156 C 15.253906 19.511719 16.078125 19.464844 16.234375 19.332031 C 16.644531 18.996094 16.441406 16.777344 15.910156 15.757812 C 15.695312 15.324219 14.976562 14.542969 14.542969 14.28125 L 14.257812 14.101562 L 14.59375 13.464844 C 15.371094 11.953125 14.914062 10.246094 13.5 9.40625 C 12.828125 9.023438 11.699219 8.902344 11.003906 9.167969 Z M 13.03125 10.96875 C 13.390625 11.328125 13.441406 11.449219 13.441406 12 C 13.441406 12.898438 12.898438 13.441406 12 13.441406 C 11.449219 13.441406 11.328125 13.390625 10.96875 13.03125 C 10.609375 12.671875 10.558594 12.550781 10.558594 12 C 10.558594 11.449219 10.609375 11.328125 10.96875 10.96875 C 11.328125 10.609375 11.449219 10.558594 12 10.558594 C 12.550781 10.558594 12.671875 10.609375 13.03125 10.96875 Z M 13.019531 15.203125 C 13.777344 15.457031 14.542969 16.222656 14.796875 16.980469 C 15.179688 18.085938 15.394531 18 12 18 C 8.605469 18 8.820312 18.085938 9.203125 16.980469 C 9.71875 15.457031 11.4375 14.664062 13.019531 15.203125 Z M 13.019531 15.203125 "/>
<path style=" stroke:none;fill-rule:nonzero;fill:rgb(0%,0%,0%);fill-opacity:1;" d="M 1.789062 13.066406 C 1.414062 13.367188 1.378906 14.363281 1.726562 14.746094 C 2.269531 15.335938 3 14.878906 3 13.945312 C 3 13.308594 2.941406 13.175781 2.554688 12.972656 C 2.207031 12.792969 2.113281 12.804688 1.789062 13.066406 Z M 1.789062 13.066406 "/>
</g>
</svg>
